<?xml version="1.0" encoding="UTF-8" standalone="no" ?>
<!DOCTYPE svg PUBLIC "-//W3C//DTD SVG 1.1//EN" "http://www.w3.org/Graphics/SVG/1.1/DTD/svg11.dtd">
<svg xmlns="http://www.w3.org/2000/svg" xmlns:xlink="http://www.w3.org/1999/xlink" version="1.1" width="1024" height="768" viewBox="0 0 1024 768" xml:space="preserve">
<desc>Created with Fabric.js 4.6.0</desc>
<defs>
</defs>
<g transform="matrix(1.05 0 0 1.05 512 432.79)" id="-dje3R7dnzY3ZjRye_KM8"  >
<filter id="SVGID_81" y="-21%" height="142%" x="-23%" width="146%" >
	<feGaussianBlur in="SourceAlpha" stdDeviation="2"></feGaussianBlur>
	<feOffset dx="-14" dy="0" result="oBlur" ></feOffset>
	<feFlood flood-color="rgb(94,52,235)" flood-opacity="1"/>
	<feComposite in2="oBlur" operator="in" />
	<feMerge>
		<feMergeNode></feMergeNode>
		<feMergeNode in="SourceGraphic"></feMergeNode>
	</feMerge>
</filter>
<g style="filter: url(#SVGID_81);" vector-effect="non-scaling-stroke"   >
		<g transform="matrix(1 0 0 1 1.76 172.04)" id="zsxW2griM2UPguJxgdH1O"  >
<path style="stroke: none; stroke-width: 1; stroke-dasharray: none; stroke-linecap: butt; stroke-dashoffset: 0; stroke-linejoin: miter; stroke-miterlimit: 4; fill: rgb(114,118,122); fill-rule: nonzero; opacity: 1;" vector-effect="non-scaling-stroke"  transform=" translate(-301.76, -472.04)" d="M 369.759 517.104 L 233.758 517.104 L 246.596 472.14200000000005 L 354.762 472.14200000000005 L 369.759 517.104 z M 304.115 458.657 C 312.85200000000003 458.657 319.96000000000004 451.554 319.96000000000004 442.817 C 319.96000000000004 434.071 312.853 426.968 304.115 426.968 C 295.384 426.968 288.262 434.071 288.262 442.817 C 288.262 451.555 295.384 458.657 304.115 458.657 z" stroke-linecap="round" />
</g>
		<g transform="matrix(1 0 0 1 0 0)" id="pISMiisoSynU-fc5C9TXR"  >
<path style="stroke: none; stroke-width: 1; stroke-dasharray: none; stroke-linecap: butt; stroke-dashoffset: 0; stroke-linejoin: miter; stroke-miterlimit: 4; fill: rgb(186,186,186); fill-rule: nonzero; opacity: 1;" vector-effect="non-scaling-stroke"  transform=" translate(-300, -300)" d="M 436.179 534.994 C 436.179 542.9300000000001 429.71299999999997 549.4 421.772 549.4 L 182.995 549.4 C 175.05 549.4 168.59300000000002 542.929 168.59300000000002 534.994 C 168.59300000000002 527.053 175.05 520.587 182.995 520.587 L 421.772 520.587 C 429.713 520.587 436.179 527.053 436.179 534.994 z M 596.512 50.6 L 596.512 468.654 L 3.488 468.654 L 3.488 50.6 L 596.512 50.6 z M 323.055 442.817 C 323.055 432.38 314.562 423.883 304.116 423.883 C 293.676 423.883 285.178 432.38 285.178 442.817 C 285.178 453.26300000000003 293.676 461.747 304.116 461.747 C 314.562 461.747 323.055 453.264 323.055 442.817 z M 564.238 84.535 L 43.983 84.535 L 43.983 414.46799999999996 L 564.2379999999999 414.46799999999996 L 564.2379999999999 84.535 z" stroke-linecap="round" />
</g>
		<g transform="matrix(1 0 0 1 0 0)" id="biXuoe7Sl4wvLMlQKg7cM"  >
<path style="stroke: none; stroke-width: 1; stroke-dasharray: none; stroke-linecap: butt; stroke-dashoffset: 0; stroke-linejoin: miter; stroke-miterlimit: 4; fill: rgb(49,77,109); fill-rule: nonzero; opacity: 1;" vector-effect="non-scaling-stroke"  transform=" translate(-300, -300)" d="M 600 47.12 L 0 47.12 L 0 472.141 L 242.973 472.141 L 230.12300000000002 517.1030000000001 L 182.995 517.1030000000001 C 173.135 517.1030000000001 165.1 525.124 165.1 534.994 C 165.1 544.859 173.135 552.88 182.995 552.88 L 421.772 552.88 C 431.642 552.88 439.658 544.859 439.658 534.994 C 439.658 525.124 431.642 517.1030000000001 421.772 517.1030000000001 L 373.425 517.1030000000001 L 358.443 472.1410000000001 L 600 472.1410000000001 L 600 47.12 z M 596.512 468.653 L 3.488 468.653 L 3.488 50.6 L 596.5110000000001 50.6 L 596.5110000000001 468.653 z M 421.771 520.587 C 429.712 520.587 436.178 527.053 436.178 534.994 C 436.178 542.9300000000001 429.712 549.4 421.771 549.4 L 182.995 549.4 C 175.05 549.4 168.59300000000002 542.929 168.59300000000002 534.994 C 168.59300000000002 527.053 175.05 520.587 182.995 520.587 L 421.771 520.587 z M 233.758 517.104 L 246.596 472.14200000000005 L 354.762 472.14200000000005 L 369.759 517.104 L 233.758 517.104 z M 564.238 84.535 L 43.983 84.535 L 43.983 414.46799999999996 L 564.2379999999999 414.46799999999996 L 564.2379999999999 84.535 z M 560.755 410.975 L 47.477 410.975 L 47.477 88.027 L 560.755 88.027 L 560.755 410.975 z M 304.115 423.884 C 293.675 423.884 285.177 432.38100000000003 285.177 442.81800000000004 C 285.177 453.26400000000007 293.675 461.74800000000005 304.115 461.74800000000005 C 314.56100000000004 461.74800000000005 323.05400000000003 453.26500000000004 323.05400000000003 442.81800000000004 C 323.055 432.381 314.562 423.884 304.115 423.884 z M 304.115 458.657 C 295.384 458.657 288.262 451.554 288.262 442.817 C 288.262 434.071 295.384 426.968 304.115 426.968 C 312.85200000000003 426.968 319.96000000000004 434.071 319.96000000000004 442.817 C 319.96 451.555 312.853 458.657 304.115 458.657 z" stroke-linecap="round" />
</g>
</g>
</g>
<g transform="matrix(1.63 0 0 1.02 516.72 380.33)" id="aIEgGdLD1AM4XGkLdoyIV"  >
<path style="stroke: rgb(46,20,20); stroke-width: 0; stroke-dasharray: none; stroke-linecap: butt; stroke-dashoffset: 0; stroke-linejoin: miter; stroke-miterlimit: 4; fill: rgb(255,255,255); fill-rule: nonzero; opacity: 1;" vector-effect="non-scaling-stroke"  transform=" translate(0, 0)" d="M -167.86885 -167.86885 L 167.86885999999998 -167.86885 L 167.86885999999998 167.86885999999998 L -167.86885 167.86885999999998 z" stroke-linecap="round" />
</g>
<g transform="matrix(3.69 0 0 3.01 512 375.61)" id="p8DY3P6wgOFUWMByaMhfW"  >
<path style="stroke: none; stroke-width: 1; stroke-dasharray: none; stroke-linecap: butt; stroke-dashoffset: 0; stroke-linejoin: miter; stroke-miterlimit: 4; fill: rgb(94,52,235); fill-rule: nonzero; opacity: 1;" vector-effect="non-scaling-stroke"  transform=" translate(-40, -40)" d="M 64.002 38.692 L 41.308 38.692 L 41.308 25.094 C 48.602 24.901 54.766 23.12 59.564 21.027 C 62.337 26.437 63.823 32.342 64.002 38.692 z M 41.308 2.16 L 41.308 22.477 C 47.964 22.293 53.663 20.721 58.288 18.721 C 56.525999999999996 15.769 54.363 12.974 51.797999999999995 10.345 C 47.724 6.17 43.608 3.488 41.308 2.16 z M 38.692 38.692 L 38.692 25.094 C 31.398 24.901 25.234 23.12 20.436 21.027 C 17.663 26.437 16.177 32.342 15.998000000000001 38.693 L 38.692 38.693 z M 28.202 10.345 C 25.635 12.975000000000001 23.470000000000002 15.772 21.708000000000002 18.727 C 26.195 20.656 31.929000000000002 22.287 38.69200000000001 22.476 L 38.69200000000001 2.16 C 36.392 3.488 32.276 6.17 28.202 10.345 z M 66.62 41.308 C 66.452 47.484 65.08800000000001 53.351 62.55800000000001 58.763 C 62.35300000000001 59.202999999999996 62.13700000000001 59.638999999999996 61.916000000000004 60.073 C 63.132000000000005 60.682 64.23700000000001 61.297 65.22500000000001 61.892 C 67.44500000000001 63.229000000000006 69.266 64.562 70.676 65.706 C 76.248 59.063 79.702 50.585 80 41.309000000000005 L 66.62 41.309000000000005 z M 13.38 38.692 C 13.549000000000001 32.516 14.913 26.649 17.442 21.237000000000002 C 17.648 20.797 17.863 20.361 18.084 19.927000000000003 C 16.868 19.318000000000005 15.763 18.703000000000003 14.774999999999999 18.108000000000004 C 12.554999999999998 16.771000000000004 10.733999999999998 15.438000000000004 9.323999999999998 14.294000000000004 C 3.752 20.938 0.298 29.416 0 38.692 L 13.38 38.692 z M 38.692 41.308 L 15.998 41.308 C 16.177 47.658 17.663 53.563 20.436 58.973 C 25.234 56.879999999999995 31.399 55.099 38.692 54.906 L 38.692 41.308 z M 18.084 60.073 C 17.863 59.639 17.647 59.203 17.442 58.763 C 14.912 53.349999999999994 13.548 47.483999999999995 13.379999999999999 41.308 L 0 41.308 C 0.298 50.584 3.752 59.062 9.324 65.705 C 10.734 64.56099999999999 12.555 63.228 14.774999999999999 61.891 C 15.763 61.297 16.868 60.681 18.084 60.073 z M 26.4 71.554 C 23.624 68.721 21.262999999999998 65.646 19.346999999999998 62.38 C 15.804999999999998 64.151 13.026999999999997 66.099 11.077999999999998 67.665 C 17.726999999999997 74.614 26.854999999999997 79.17 37.041 79.914 C 34.56 78.456 30.496 75.735 26.4 71.554 z M 16.212 15.92 C 17.146 16.479 18.19 17.059 19.34 17.631 C 21.257 14.361 23.621 11.283000000000001 26.4 8.446 C 30.496 4.266 34.56 1.5439999999999996 37.041 0.0860000000000003 C 26.853 0.83 17.723 5.388 11.074 12.34 C 12.408 13.416 14.129 14.671 16.212 15.92 z M 63.788 64.08 C 62.854 63.521 61.809999999999995 62.940999999999995 60.66 62.369 C 58.742999999999995 65.639 56.379 68.717 53.599999999999994 71.554 C 49.50399999999999 75.73400000000001 45.44 78.456 42.958999999999996 79.914 C 53.147999999999996 79.169 62.27799999999999 74.611 68.92699999999999 67.66 C 67.592 66.584 65.871 65.329 63.788 64.08 z M 53.6 8.446 C 56.376000000000005 11.279 58.737 14.354 60.653 17.619999999999997 C 64.195 15.848999999999997 66.973 13.900999999999998 68.92099999999999 12.334999999999997 C 62.273 5.386 53.145 0.83 42.959 0.085 C 45.44 1.544 49.504 4.266 53.6 8.446 z M 41.308 41.308 L 41.308 54.906 C 48.602 55.099 54.766 56.879999999999995 59.564 58.973 C 62.337 53.563 63.823 47.658 64.002 41.308 L 41.308 41.308 z M 51.798 69.655 C 54.365 67.025 56.53 64.22800000000001 58.292 61.273 C 53.805 59.344 48.071 57.713 41.308 57.524 L 41.308 77.84 C 43.608 76.512 47.724 73.83 51.798 69.655 z M 65.224 18.108 C 64.236 18.703 63.131 19.318 61.915000000000006 19.927 C 62.136 20.361 62.352000000000004 20.797 62.55700000000001 21.237 C 65.087 26.65 66.45100000000001 32.516 66.61900000000001 38.69199999999999 L 80 38.69199999999999 C 79.702 29.415999999999993 76.248 20.93799999999999 70.676 14.294999999999995 C 69.266 15.438 67.445 16.771 65.224 18.108 z M 38.692 77.84 L 38.692 57.523 C 32.036 57.707 26.337 59.279 21.712 61.279 C 23.474 64.23100000000001 25.637 67.02600000000001 28.201999999999998 69.655 C 32.276 73.83 36.392 76.512 38.692 77.84 z" stroke-linecap="round" />
</g>
</svg>